<?xml version="1.0"?>
<svg width="24" height="24" xmlns="http://www.w3.org/2000/svg" xmlns:svg="http://www.w3.org/2000/svg">
 <g class="layer">
  <title>Layer 1</title>
  <path d="m20.74,13.04a8.09,8.09 0 0 1 -2.08,0.28c-2.13,0 -4.14,-0.83 -5.64,-2.34a8.03,8.03 0 0 1 -2.07,-7.72a1,1 0 0 0 -1.22,-1.23a10.01,10.01 0 0 0 -4.49,2.59c-3.9,3.89 -3.9,10.24 0,14.14a9.94,9.94 0 0 0 7.07,2.93a9.93,9.93 0 0 0 7.07,-2.93a10.01,10.01 0 0 0 2.59,-4.49a1,1 0 0 0 -1.23,-1.23zm-2.77,4.31a7.95,7.95 0 0 1 -5.66,2.34a7.95,7.95 0 0 1 -5.65,-2.35c-3.12,-3.11 -3.12,-8.19 0,-11.31a7.92,7.92 0 0 1 2.06,-1.48a10.03,10.03 0 0 0 2.89,7.85a9.97,9.97 0 0 0 7.84,2.89a8.04,8.04 0 0 1 -1.48,2.06z" fill="#038a8f" id="svg_1"/>
 </g>
</svg>