<?xml version="1.0"?>
<svg width="24" height="24" xmlns="http://www.w3.org/2000/svg" xmlns:svg="http://www.w3.org/2000/svg">
 <g class="layer">
  <title>Layer 1</title>
  <path d="m9.5,22c2,0 3.89,-0.78 5.31,-2.21l6.91,-7.09a1,1 0 0 0 -0.72,-1.7l-3.3,0l4.17,-7.51a1,1 0 0 0 -1.35,-1.36l-7.11,3.95l0.57,-2.88a1,1 0 0 0 -1.63,-0.96l-8.15,6.96c-2.93,2.92 -2.93,7.68 0,10.6a7.45,7.45 0 0 0 5.3,2.2zm-3.95,-11.34l5.9,-5.03l-0.24,1.24l-0.19,0.93l0,0l-0.42,2.12l7.83,-4.35l-3.3,5.94l0,0l-0.83,1.49l4.33,0l-5.24,5.39c-1.04,1.04 -2.42,1.61 -3.89,1.61s-2.85,-0.57 -3.89,-1.61c-2.14,-2.15 -2.14,-5.64 -0.06,-7.73z" fill="#038a8f" id="svg_1"/>
  <path d="m9.5,18a3.49,3.49 0 0 0 1.48,-6.66c0.01,0.05 0.02,0.11 0.02,0.16a1.5,1.5 0 1 1 -3,0c0,-0.05 0.01,-0.11 0.02,-0.16a3.49,3.49 0 0 0 1.48,6.66z" fill="#038a8f" id="svg_2"/>
 </g>
</svg>