<?xml version="1.0"?>
<svg width="24" height="24" xmlns="http://www.w3.org/2000/svg" xmlns:svg="http://www.w3.org/2000/svg">
 <g class="layer">
  <title>Layer 1</title>
  <path d="m8,12.05c2,0 3.5,-1.5 3.5,-3.5s-1.5,-3.5 -3.5,-3.5s-3.5,1.51 -3.5,3.5s1.5,3.5 3.5,3.5zm1,0.95l-2,0c-2.76,0 -5,2.24 -5,5l0,1l12,0l0,-1c0,-2.76 -2.24,-5 -5,-5zm9.36,-10.36l-1.41,1.41c1.32,1.32 2.05,3.08 2.05,4.95s-0.73,3.63 -2.05,4.95l1.41,1.41c1.7,-1.7 2.64,-3.96 2.64,-6.36s-0.94,-4.66 -2.64,-6.36z" fill="#038a8f" id="svg_1"/>
  <path d="m15.54,5.46l-1.42,1.42c0.57,0.57 0.88,1.32 0.88,2.12s-0.31,1.55 -0.88,2.12l1.42,1.42c0.94,-0.95 1.46,-2.2 1.46,-3.54s-0.52,-2.59 -1.46,-3.54z" fill="#038a8f" id="svg_2"/>
 </g>
</svg>